<svg xmlns="http://www.w3.org/2000/svg" xmlns:xlink="http://www.w3.org/1999/xlink" width="100" zoomAndPan="magnify" viewBox="0 0 75 74.999997" height="100" preserveAspectRatio="xMidYMid meet" version="1.0"><defs><g/></defs><g fill="#000000" fill-opacity="1"><g transform="translate(1.06597, 59.538055)"><g><path d="M 21.546875 -33.9375 C 26.929688 -33.9375 30.828125 -33.078125 33.234375 -31.359375 C 35.648438 -29.648438 36.859375 -27.460938 36.859375 -24.796875 C 36.859375 -23.984375 36.773438 -23.238281 36.609375 -22.5625 C 35.972656 -19.769531 34.203125 -17.769531 31.296875 -16.5625 C 28.398438 -15.351562 24.984375 -14.75 21.046875 -14.75 C 19.046875 -14.75 17.179688 -14.875 15.453125 -15.125 C 15.398438 -12.925781 15.988281 -11.378906 17.21875 -10.484375 C 18.445312 -9.597656 20.164062 -9.15625 22.375 -9.15625 C 23.394531 -9.15625 24.367188 -9.269531 25.296875 -9.5 C 26.234375 -9.738281 27.421875 -10.085938 28.859375 -10.546875 C 30.046875 -10.972656 30.847656 -11.1875 31.265625 -11.1875 C 31.734375 -11.1875 31.96875 -10.910156 31.96875 -10.359375 C 32.007812 -8.878906 31.457031 -7.320312 30.3125 -5.6875 C 29.175781 -4.050781 27.484375 -2.660156 25.234375 -1.515625 C 22.984375 -0.378906 20.269531 0.1875 17.09375 0.1875 C 12.394531 0.1875 8.539062 -0.992188 5.53125 -3.359375 C 2.519531 -5.734375 1.015625 -9.191406 1.015625 -13.734375 C 1.015625 -15.003906 1.1875 -16.484375 1.53125 -18.171875 C 2.582031 -23.390625 4.898438 -27.320312 8.484375 -29.96875 C 12.066406 -32.613281 16.421875 -33.9375 21.546875 -33.9375 Z M 15.890625 -18.9375 C 16.054688 -18.894531 16.289062 -18.875 16.59375 -18.875 C 18.375 -18.875 19.726562 -19.695312 20.65625 -21.34375 C 21.59375 -23 22.039062 -24.847656 22 -26.890625 C 21.945312 -28.078125 21.601562 -28.671875 20.96875 -28.671875 C 20.507812 -28.671875 19.960938 -28.296875 19.328125 -27.546875 C 18.691406 -26.804688 18.066406 -25.695312 17.453125 -24.21875 C 16.835938 -22.738281 16.316406 -20.976562 15.890625 -18.9375 Z M 15.890625 -18.9375 "/></g></g></g><g fill="#000000" fill-opacity="1"><g transform="translate(36.649018, 59.538055)"><g><path d="M 16.71875 -33.625 C 19.175781 -33.625 20.972656 -33.15625 22.109375 -32.21875 C 23.253906 -31.289062 23.828125 -30.019531 23.828125 -28.40625 C 23.828125 -27.4375 23.679688 -26.503906 23.390625 -25.609375 L 17.546875 -6.609375 C 17.410156 -6.097656 17.34375 -5.65625 17.34375 -5.28125 C 17.34375 -4.726562 17.445312 -4.289062 17.65625 -3.96875 C 17.875 -3.65625 18.175781 -3.347656 18.5625 -3.046875 C 18.851562 -2.753906 19.0625 -2.507812 19.1875 -2.3125 C 19.320312 -2.125 19.34375 -1.882812 19.25 -1.59375 C 19.039062 -1.039062 18.617188 -0.632812 17.984375 -0.375 C 17.347656 -0.125 16.375 0 15.0625 0 L 0.5625 0 C -0.53125 0 -1.332031 -0.175781 -1.84375 -0.53125 C -2.351562 -0.894531 -2.523438 -1.375 -2.359375 -1.96875 C -2.179688 -2.476562 -1.734375 -2.925781 -1.015625 -3.3125 C -0.378906 -3.644531 0.144531 -4.046875 0.5625 -4.515625 C 0.988281 -4.984375 1.351562 -5.722656 1.65625 -6.734375 L 7.171875 -25.109375 C 7.304688 -25.484375 7.375 -25.800781 7.375 -26.0625 C 7.375 -26.53125 7.265625 -26.898438 7.046875 -27.171875 C 6.835938 -27.453125 6.519531 -27.738281 6.09375 -28.03125 C 5.675781 -28.375 5.378906 -28.671875 5.203125 -28.921875 C 5.035156 -29.171875 5.015625 -29.507812 5.140625 -29.9375 C 5.398438 -30.914062 6.734375 -31.773438 9.140625 -32.515625 C 11.554688 -33.253906 14.082031 -33.625 16.71875 -33.625 Z M 20.96875 -47.671875 C 22.625 -47.671875 24 -47.128906 25.09375 -46.046875 C 26.195312 -44.972656 26.75 -43.648438 26.75 -42.078125 C 26.75 -40.972656 26.460938 -39.890625 25.890625 -38.828125 C 25.328125 -37.773438 24.523438 -36.921875 23.484375 -36.265625 C 22.441406 -35.609375 21.285156 -35.28125 20.015625 -35.28125 C 18.410156 -35.28125 17.066406 -35.816406 15.984375 -36.890625 C 14.898438 -37.972656 14.335938 -39.320312 14.296875 -40.9375 C 14.296875 -41.988281 14.570312 -43.035156 15.125 -44.078125 C 15.675781 -45.117188 16.457031 -45.976562 17.46875 -46.65625 C 18.488281 -47.332031 19.65625 -47.671875 20.96875 -47.671875 Z M 20.96875 -47.671875 "/></g></g></g><g fill="#000000" fill-opacity="1"><g transform="translate(59.90507, 59.538055)"><g><path d="M 7.5625 -12.84375 C 9.257812 -12.84375 10.691406 -12.269531 11.859375 -11.125 C 13.023438 -9.976562 13.609375 -8.578125 13.609375 -6.921875 C 13.609375 -5.785156 13.300781 -4.664062 12.6875 -3.5625 C 12.070312 -2.457031 11.222656 -1.554688 10.140625 -0.859375 C 9.054688 -0.160156 7.835938 0.1875 6.484375 0.1875 C 4.828125 0.1875 3.425781 -0.378906 2.28125 -1.515625 C 1.144531 -2.660156 0.554688 -4.0625 0.515625 -5.71875 C 0.515625 -6.863281 0.804688 -7.984375 1.390625 -9.078125 C 1.984375 -10.179688 2.820312 -11.082031 3.90625 -11.78125 C 4.988281 -12.488281 6.207031 -12.84375 7.5625 -12.84375 Z M 7.5625 -12.84375 "/></g></g></g></svg>